HIERARCHY
ROOT Root
{
  OFFSET 0.0 0.0 0.0
  CHANNELS 6 Xposition Yposition Zposition Zrotation Yrotation Xrotation
  JOINT Hips
  {
    OFFSET 0.0 100.0 0.0
    CHANNELS 6 Xposition Yposition Zposition Zrotation Yrotation Xrotation
    JOINT Spine1
    {
      OFFSET 5.003913 -0.037094 -0.013727
      CHANNELS 3 Zrotation Yrotation Xrotation
      JOINT Spine2
      {
        OFFSET 7.125363 -1e-06 0.0
        CHANNELS 3 Zrotation Yrotation Xrotation
        JOINT Chest
        {
          OFFSET 7.594027 1e-06 0.0
          CHANNELS 3 Zrotation Yrotation Xrotation
          JOINT Neck1
          {
            OFFSET 26.313086 -0.460272 -0.181672
            CHANNELS 3 Zrotation Yrotation Xrotation
            JOINT Neck2
            {
              OFFSET 8.045911 0.0 0.0
              CHANNELS 3 Zrotation Yrotation Xrotation
              JOINT Head
              {
                OFFSET 6.432774 0.0 0.0
                CHANNELS 3 Zrotation Yrotation Xrotation
                JOINT HeadEnd
                {
                  OFFSET 16.169773 0.06451 0.00362
                  CHANNELS 3 Zrotation Yrotation Xrotation
                }
                JOINT Jaw
                {
                  OFFSET 0.108741 3.12938 0.002639
                  CHANNELS 3 Zrotation Yrotation Xrotation
                }
                JOINT LeftEye
                {
                  OFFSET 4.45173 8.166359 3.206392
                  CHANNELS 3 Zrotation Yrotation Xrotation
                }
                JOINT RightEye
                {
                  OFFSET 4.436895 8.135758 -3.222429
                  CHANNELS 3 Zrotation Yrotation Xrotation
                }
              }
            }
          }
          JOINT LeftShoulder
          {
            OFFSET 23.218927 5.195579 1.621656
            CHANNELS 3 Zrotation Yrotation Xrotation
            JOINT LeftArm
            {
              OFFSET 15.902118 2e-06 -2e-06
              CHANNELS 3 Zrotation Yrotation Xrotation
              JOINT LeftForeArm
              {
                OFFSET 28.739307 0.0 -1e-06
                CHANNELS 3 Zrotation Yrotation Xrotation
                JOINT LeftHand
                {
                  OFFSET 27.093981 -4e-06 0.0
                  CHANNELS 3 Zrotation Yrotation Xrotation
                  JOINT LeftHandThumb1
                  {
                    OFFSET 2.276781 3.380274 0.83384
                    CHANNELS 3 Zrotation Yrotation Xrotation
                    JOINT LeftHandThumb2
                    {
                      OFFSET 4.705309 -1e-06 -1e-06
                      CHANNELS 3 Zrotation Yrotation Xrotation
                      JOINT LeftHandThumb3
                      {
                        OFFSET 2.798515 0.0 3e-06
                        CHANNELS 3 Zrotation Yrotation Xrotation
                        JOINT LeftHandThumbEnd
                        {
                          OFFSET 3.180793 4e-06 -4e-06
                          CHANNELS 3 Zrotation Yrotation Xrotation
                        }
                      }
                    }
                  }
                  JOINT LeftHandIndex1
                  {
                    OFFSET 3.247786 2.352677 0.137192
                    CHANNELS 3 Zrotation Yrotation Xrotation
                    JOINT LeftHandIndex2
                    {
                      OFFSET 6.367095 1e-06 0.0
                      CHANNELS 3 Zrotation Yrotation Xrotation
                      JOINT LeftHandIndex3
                      {
                        OFFSET 3.662364 0.0 0.0
                        CHANNELS 3 Zrotation Yrotation Xrotation
                        JOINT LeftHandIndex4
                        {
                          OFFSET 2.329242 4e-06 -4e-06
                          CHANNELS 3 Zrotation Yrotation Xrotation
                          JOINT LeftHandIndexEnd
                          {
                            OFFSET 2.767823 1e-06 0.0
                            CHANNELS 3 Zrotation Yrotation Xrotation
                          }
                        }
                      }
                    }
                  }
                  JOINT LeftHandMiddle1
                  {
                    OFFSET 3.163612 0.945023 -0.406112
                    CHANNELS 3 Zrotation Yrotation Xrotation
                    JOINT LeftHandMiddle2
                    {
                      OFFSET 6.276789 3e-06 0.0
                      CHANNELS 3 Zrotation Yrotation Xrotation
                      JOINT LeftHandMiddle3
                      {
                        OFFSET 4.35652 -1e-06 4e-06
                        CHANNELS 3 Zrotation Yrotation Xrotation
                        JOINT LeftHandMiddle4
                        {
                          OFFSET 2.996877 0.0 8e-06
                          CHANNELS 3 Zrotation Yrotation Xrotation
                          JOINT LeftHandMiddleEnd
                          {
                            OFFSET 2.323256 3e-06 -4e-06
                            CHANNELS 3 Zrotation Yrotation Xrotation
                          }
                        }
                      }
                    }
                  }
                  JOINT LeftHandRing1
                  {
                    OFFSET 2.882606 -0.309162 0.107445
                    CHANNELS 3 Zrotation Yrotation Xrotation
                    JOINT LeftHandRing2
                    {
                      OFFSET 6.033198 0.0 4e-06
                      CHANNELS 3 Zrotation Yrotation Xrotation
                      JOINT LeftHandRing3
                      {
                        OFFSET 4.350578 3e-06 0.0
                        CHANNELS 3 Zrotation Yrotation Xrotation
                        JOINT LeftHandRing4
                        {
                          OFFSET 2.651321 2e-06 -7e-06
                          CHANNELS 3 Zrotation Yrotation Xrotation
                          JOINT LeftHandRingEnd
                          {
                            OFFSET 1.937663 1e-06 -4e-06
                            CHANNELS 3 Zrotation Yrotation Xrotation
                          }
                        }
                      }
                    }
                  }
                  JOINT LeftHandPinky1
                  {
                    OFFSET 2.865315 -1.525436 0.575687
                    CHANNELS 3 Zrotation Yrotation Xrotation
                    JOINT LeftHandPinky2
                    {
                      OFFSET 5.54936 1e-06 -8e-06
                      CHANNELS 3 Zrotation Yrotation Xrotation
                      JOINT LeftHandPinky3
                      {
                        OFFSET 3.070974 0.0 -4e-06
                        CHANNELS 3 Zrotation Yrotation Xrotation
                        JOINT LeftHandPinky4
                        {
                          OFFSET 1.549672 1e-06 0.0
                          CHANNELS 3 Zrotation Yrotation Xrotation
                          JOINT LeftHandPinkyEnd
                          {
                            OFFSET 1.952123 0.0 0.0
                            CHANNELS 3 Zrotation Yrotation Xrotation
                          }
                        }
                      }
                    }
                  }
                }
              }
            }
          }
          JOINT RightShoulder
          {
            OFFSET 23.161716 5.296122 -1.380114
            CHANNELS 3 Zrotation Yrotation Xrotation
            JOINT RightArm
            {
              OFFSET -16.027195 -2e-06 1.1e-05
              CHANNELS 3 Zrotation Yrotation Xrotation
              JOINT RightForeArm
              {
                OFFSET -28.736639 4e-06 2e-06
                CHANNELS 3 Zrotation Yrotation Xrotation
                JOINT RightHand
                {
                  OFFSET -27.133619 6e-06 0.0
                  CHANNELS 3 Zrotation Yrotation Xrotation
                  JOINT RightHandThumb1
                  {
                    OFFSET -2.274328 -3.351035 -0.83067
                    CHANNELS 3 Zrotation Yrotation Xrotation
                    JOINT RightHandThumb2
                    {
                      OFFSET -4.703594 -3e-06 2e-06
                      CHANNELS 3 Zrotation Yrotation Xrotation
                      JOINT RightHandThumb3
                      {
                        OFFSET -2.794935 -4e-06 -3e-06
                        CHANNELS 3 Zrotation Yrotation Xrotation
                        JOINT RightHandThumbEnd
                        {
                          OFFSET -3.183852 4e-06 1e-06
                          CHANNELS 3 Zrotation Yrotation Xrotation
                        }
                      }
                    }
                  }
                  JOINT RightHandIndex1
                  {
                    OFFSET -3.253496 -2.33755 -0.127667
                    CHANNELS 3 Zrotation Yrotation Xrotation
                    JOINT RightHandIndex2
                    {
                      OFFSET -6.344434 0.0 0.0
                      CHANNELS 3 Zrotation Yrotation Xrotation
                      JOINT RightHandIndex3
                      {
                        OFFSET -3.654871 0.0 -8e-06
                        CHANNELS 3 Zrotation Yrotation Xrotation
                        JOINT RightHandIndex4
                        {
                          OFFSET -2.327586 -1e-06 0.0
                          CHANNELS 3 Zrotation Yrotation Xrotation
                          JOINT RightHandIndexEnd
                          {
                            OFFSET -2.770001 3e-06 8e-06
                            CHANNELS 3 Zrotation Yrotation Xrotation
                          }
                        }
                      }
                    }
                  }
                  JOINT RightHandMiddle1
                  {
                    OFFSET -3.168223 -0.944764 0.411762
                    CHANNELS 3 Zrotation Yrotation Xrotation
                    JOINT RightHandMiddle2
                    {
                      OFFSET -6.266691 -1e-06 -4e-06
                      CHANNELS 3 Zrotation Yrotation Xrotation
                      JOINT RightHandMiddle3
                      {
                        OFFSET -4.348901 0.0 0.0
                        CHANNELS 3 Zrotation Yrotation Xrotation
                        JOINT RightHandMiddle4
                        {
                          OFFSET -3.00024 2e-06 -4e-06
                          CHANNELS 3 Zrotation Yrotation Xrotation
                          JOINT RightHandMiddleEnd
                          {
                            OFFSET -2.321477 -4e-06 -4e-06
                            CHANNELS 3 Zrotation Yrotation Xrotation
                          }
                        }
                      }
                    }
                  }
                  JOINT RightHandRing1
                  {
                    OFFSET -2.885654 0.293261 -0.119232
                    CHANNELS 3 Zrotation Yrotation Xrotation
                    JOINT RightHandRing2
                    {
                      OFFSET -6.032835 -1e-06 -4e-06
                      CHANNELS 3 Zrotation Yrotation Xrotation
                      JOINT RightHandRing3
                      {
                        OFFSET -4.33881 0.0 -4e-06
                        CHANNELS 3 Zrotation Yrotation Xrotation
                        JOINT RightHandRing4
                        {
                          OFFSET -2.654903 -4e-06 -4e-06
                          CHANNELS 3 Zrotation Yrotation Xrotation
                          JOINT RightHandRingEnd
                          {
                            OFFSET -1.935122 0.0 4e-06
                            CHANNELS 3 Zrotation Yrotation Xrotation
                          }
                        }
                      }
                    }
                  }
                  JOINT RightHandPinky1
                  {
                    OFFSET -2.866241 1.503904 -0.60527
                    CHANNELS 3 Zrotation Yrotation Xrotation
                    JOINT RightHandPinky2
                    {
                      OFFSET -5.553177 -2e-06 0.0
                      CHANNELS 3 Zrotation Yrotation Xrotation
                      JOINT RightHandPinky3
                      {
                        OFFSET -3.062664 -1e-06 -4e-06
                        CHANNELS 3 Zrotation Yrotation Xrotation
                        JOINT RightHandPinky4
                        {
                          OFFSET -1.546529 2e-06 4e-06
                          CHANNELS 3 Zrotation Yrotation Xrotation
                          JOINT RightHandPinkyEnd
                          {
                            OFFSET -1.952341 0.0 -4e-06
                            CHANNELS 3 Zrotation Yrotation Xrotation
                          }
                        }
                      }
                    }
                  }
                }
              }
            }
          }
        }
      }
    }
    JOINT LeftLeg
    {
      OFFSET -8.443107 2.567604 10.043214
      CHANNELS 3 Zrotation Yrotation Xrotation
      JOINT LeftShin
      {
        OFFSET 43.229198 1e-06 -1e-06
        CHANNELS 3 Zrotation Yrotation Xrotation
        JOINT LeftFoot
        {
          OFFSET 42.298611 1e-06 1e-06
          CHANNELS 3 Zrotation Yrotation Xrotation
          JOINT LeftToeBase
          {
            OFFSET 14.165858 1e-06 0.0
            CHANNELS 3 Zrotation Yrotation Xrotation
            JOINT LeftToeEnd
            {
              OFFSET 6.7141 -0.234461 0.0
              CHANNELS 3 Zrotation Yrotation Xrotation
            }
          }
        }
      }
    }
    JOINT RightLeg
    {
      OFFSET -8.303923 2.592729 -10.047278
      CHANNELS 3 Zrotation Yrotation Xrotation
      JOINT RightShin
      {
        OFFSET -43.369682 0.0 1e-06
        CHANNELS 3 Zrotation Yrotation Xrotation
        JOINT RightFoot
        {
          OFFSET -42.260784 4e-06 2e-06
          CHANNELS 3 Zrotation Yrotation Xrotation
          JOINT RightToeBase
          {
            OFFSET -14.222245 -2e-06 -1e-06
            CHANNELS 3 Zrotation Yrotation Xrotation
            JOINT RightToeEnd
            {
              OFFSET -6.660062 0.232574 -2e-06
              CHANNELS 3 Zrotation Yrotation Xrotation
            }
          }
        }
      }
    }
  }
}
MOTION
Frames: 4
Frame Time: 0.03333333333333333
0.0 0.0 0.0 0.0 -0.0 0.0 0.379064 100.291809 3.919985 89.150314 -0.573185 89.834175 -2.468604 0.445605 0.044347 -11.461712 -0.257784 0.122871 15.91848 1.093072 -1.503931 21.342855 -4.052217 2.475462 -2.599644 -0.438841 0.04381 -30.301208 -1.149716 0.636632 6e-06 0.0 -0.0 -0.019163 -0.00619 -0.016629 0.02425 0.012015 -0.033614 0.030801 -0.029523 0.006239 -135.379623 -66.564514 153.311356 34.045597 -46.20705 17.196135 31.642525 -0.079366 -0.0745 -2.275169 -0.27855 1.226782 17.636688 -26.322779 52.411274 -19.466711 -14.395624 29.410454 2e-06 -8.774859 -7e-06 32.527866 -37.343628 7.069571 -0.609778 -1.795658 -3.889326 -4.807108 -11.046841 -2.937858 4e-06 -20.976109 -1e-06 -5.019989 -25.033726 -4.031925 8e-06 1e-06 -2e-06 -10.63456 -5.686984 -3.565591 10.573302 -17.922995 -3.113909 1e-06 -13.821266 -2e-06 -0.501767 -31.181736 -4.027055 -167.696243 -58.358231 160.497971 -13.982748 -7.150215 -2.875044 13.772768 -8.401513 -3.218244 0.34774 -34.211735 0.771651 -0.963028 -17.733505 2.621039 -1e-06 -3e-06 -2e-06 -17.346468 -20.095261 -4.201781 21.757624 -1.638377 3.866445 1e-06 -6.338851 1e-06 -1.697596 -22.591904 -6.194067 -0.0 -2e-06 2e-06 35.194279 -73.2621 161.822601 30.746897 -53.743366 10.674637 33.257866 -0.089283 0.001973 -0.082656 0.291444 0.700591 22.182142 -20.375944 49.933403 -16.701866 -16.743563 28.47661 -1.2e-05 -12.690636 4e-06 33.977905 -35.937031 -0.237763 -0.10592 -1.513859 -4.275887 -5.039046 -5.612883 -2.953566 1.2e-05 -11.020572 -5e-06 -6.111298 -15.895427 -3.840507 -0.0 -1e-06 -1e-06 -10.283386 -5.680296 -4.341845 11.028318 -11.302432 -2.372642 -1.38426 -14.238633 -6.320149 -0.625405 -26.924358 -3.827632 177.078232 -79.861931 169.038589 -13.708541 -7.363484 -3.720945 18.14119 -14.052778 -3.242688 1.8e-05 -18.787344 -2e-06 -0.429707 -8.456096 2.555518 -0.0 -6e-06 2e-06 -15.923554 -20.094515 -5.473592 30.419262 -7.190849 1.735922 8e-06 -8.162955 2e-06 -1.861886 -22.86161 -6.167975 -1e-06 -2e-06 -2e-06 -179.988449 -7.50423 -8.235639 6.953707 -0.026424 0.288366 -75.551888 -2.19391 -9.7887 -5.056179 1.410869 2.105268 -0.999999 0.0 0.0 2.712601 0.517107 -11.742899 5.756524 0.031345 0.021013 -77.925308 -4.827376 -3.658134 -4.763633 0.627768 1.68938 -1.000003 0.0 0.0 
0.0 0.0 0.0 0.0 -0.0 0.0 0.17826 100.388657 3.900205 89.065399 -0.717786 89.86216 -2.503664 0.508025 0.159268 -11.474078 -0.303091 0.037048 15.8643 1.199563 -1.635114 21.533028 -4.204727 2.437675 -2.632428 -0.531858 0.245411 -30.407169 -1.227299 0.328132 5e-06 0.0 0.0 0.011212 0.001894 0.023228 0.035054 0.050356 -0.000434 0.047075 -0.052297 0.053431 -135.661362 -66.696777 153.367111 33.899269 -46.242687 17.908844 31.764885 -0.073413 -0.263944 -2.372322 0.373609 0.98334 17.636621 -26.322737 52.411201 -19.466702 -14.395607 29.410429 -7e-06 -8.774836 -1e-06 31.293797 -35.709282 7.368701 -0.609775 -1.795655 -3.889331 -4.807084 -11.046819 -2.937854 2.6e-05 -20.976063 -7e-06 -5.019942 -25.033648 -4.0319 2e-06 1e-06 4e-06 -10.634533 -5.686973 -3.565585 10.573291 -17.922977 -3.113911 1.4e-05 -13.821242 -3e-06 -0.501737 -31.181654 -4.027031 -165.594925 -62.178532 158.871765 -13.982713 -7.150198 -2.875042 13.772738 -8.401506 -3.218249 0.347773 -34.211636 0.771646 -0.963017 -17.733452 2.621041 -3e-06 -2e-06 1e-06 -17.346409 -20.095219 -4.201784 21.757565 -1.638389 3.866421 7e-06 -6.338836 0.0 -1.69755 -22.591843 -6.194035 -1e-06 -3e-06 -3e-06 36.153728 -73.300591 160.857529 30.982374 -53.697643 10.94943 33.345242 -0.445639 -0.031897 -0.252609 1.034442 0.656345 22.182152 -20.375904 49.933361 -16.701838 -16.743532 28.476562 -4e-06 -12.69062 -4e-06 32.350517 -34.463387 0.503229 -0.105921 -1.513859 -4.275884 -5.03905 -5.612886 -2.953562 5e-06 -11.020572 -4e-06 -6.111309 -15.89544 -3.840499 0.0 -0.0 3e-06 -10.283383 -5.6803 -4.341846 11.028306 -11.30243 -2.372631 -1.384268 -14.238639 -6.32014 -0.625421 -26.924362 -3.827626 -179.123962 -83.444618 165.828751 -13.708541 -7.363491 -3.720945 18.141171 -14.052768 -3.242674 8e-06 -18.787336 -8e-06 -0.429704 -8.456096 2.555514 1e-06 0.0 -2e-06 -15.923556 -20.094519 -5.473589 30.419235 -7.190836 1.735935 4e-06 -8.162952 -7e-06 -1.861883 -22.86161 -6.167989 1e-06 -8e-06 -2e-06 179.977066 -7.65584 -7.941989 6.759417 -0.026388 0.308522 -75.181923 -2.373905 -10.156152 -5.06533 1.424852 2.127658 -0.999999 0.0 0.0 2.688249 0.746011 -11.2028 5.650983 0.038441 -0.065627 -78.016678 -5.155893 -3.568561 -4.477482 0.635511 1.696908 -1.000002 1e-06 0.0 
0.0 0.0 0.0 0.0 -0.0 0.0 -0.286815 100.3433 4.266396 88.764893 -0.953342 89.936974 -2.420548 0.795987 0.160143 -11.477182 -0.291906 -0.064635 15.732646 1.299081 -1.712045 21.92024 -4.416955 2.437476 -2.622079 -0.579482 0.257234 -30.894527 -1.357139 0.35314 6e-06 0.0 -0.0 0.003266 0.004948 0.015935 -7.1e-05 0.041854 -0.009964 0.006933 -0.038038 0.049102 -135.441238 -66.672684 153.229919 34.233997 -45.657547 18.543077 32.065495 -0.099095 -0.275838 -2.469083 0.843639 0.265437 17.636545 -26.322702 52.411167 -19.466591 -14.395568 29.410358 3e-06 -8.774798 2e-06 30.000814 -34.192715 7.61022 -0.609776 -1.795649 -3.88932 -4.807081 -11.046784 -2.937848 -6e-06 -20.975975 4e-06 -5.019961 -25.033545 -4.03189 5e-06 -1e-06 3e-06 -10.634507 -5.686959 -3.565578 10.573235 -17.922895 -3.113892 -4e-06 -13.821177 6e-06 -0.501781 -31.18148 -4.027004 -162.809616 -66.20932 156.331573 -13.982679 -7.150182 -2.875039 13.772686 -8.401463 -3.218237 0.347707 -34.211487 0.771671 -0.963049 -17.733372 2.62103 -2e-06 -3e-06 -2e-06 -17.34638 -20.095173 -4.201777 21.757504 -1.63836 3.866413 -3e-06 -6.338809 2e-06 -1.69759 -22.591726 -6.194007 -2e-06 -1e-06 -3e-06 37.24791 -73.301346 159.773911 31.341921 -53.946224 12.05746 32.965382 -0.084065 -0.011905 0.226415 1.498545 -0.203798 22.182056 -20.375914 49.933319 -16.701754 -16.743515 28.476509 -2e-06 -12.690577 6e-06 31.071411 -33.141388 1.005651 -0.105921 -1.51385 -4.275878 -5.039029 -5.612857 -2.953554 1e-06 -11.020504 4e-06 -6.111283 -15.895324 -3.840477 -0.0 1e-06 -1e-06 -10.283353 -5.680276 -4.341835 11.028267 -11.302371 -2.372626 -1.384263 -14.23855 -6.320116 -0.625431 -26.924166 -3.827591 -168.172363 -86.833061 155.382126 -13.708502 -7.363464 -3.720939 18.141111 -14.052699 -3.242664 -3e-06 -18.787239 1.9e-05 -0.42972 -8.456045 2.555515 3e-06 -0.0 -0.0 -15.923511 -20.094444 -5.473582 30.419149 -7.190797 1.735919 -3e-06 -8.162915 1.1e-05 -1.861909 -22.861469 -6.167925 -1e-06 -4e-06 -2e-06 179.614532 -8.289579 -7.337499 7.410735 -0.043819 0.294925 -75.642593 -2.906262 -10.653429 -5.08424 1.432424 2.122267 -0.999998 -0.0 -0.0 2.597583 1.482506 -10.077247 5.6453 0.035936 -0.136911 -78.541153 -6.167657 -3.20806 -4.516429 0.632167 1.684461 -1.000003 -1e-06 0.0 
0.0 0.0 0.0 0.0 -0.0 0.0 -0.733632 100.268005 4.483171 88.379517 -1.112342 90.144363 -2.318454 1.172855 0.143564 -11.467523 -0.235089 -0.097446 15.66197 1.37573 -1.824485 22.431513 -4.578459 2.474792 -2.644097 -0.587604 0.052061 -31.686625 -1.469311 0.412128 6e-06 0.0 0.0 0.007853 0.007869 0.002311 -0.024068 0.031924 -0.024753 -0.023382 -0.022255 0.037892 -134.949814 -66.812744 152.953186 34.975666 -45.127193 18.733658 32.339966 -0.114404 -0.25105 -2.388252 1.466243 -0.48647 17.636608 -26.322699 52.411156 -19.466639 -14.395585 29.410378 6e-06 -8.774827 -1e-06 28.858259 -32.726429 7.753119 -0.60978 -1.795654 -3.889324 -4.807096 -11.046812 -2.937851 -8e-06 -20.976038 -0.0 -5.019979 -25.03363 -4.031908 3e-06 3e-06 5e-06 -10.634531 -5.686975 -3.565581 10.573254 -17.922935 -3.113891 -5e-06 -13.821214 -1e-06 -0.501789 -31.181593 -4.027034 -158.858566 -70.259941 152.719498 -13.982708 -7.150202 -2.875033 13.772715 -8.401479 -3.218234 0.347713 -34.21159 0.771649 -0.963038 -17.733427 2.62102 -2e-06 -2e-06 -3e-06 -17.346422 -20.095215 -4.201771 21.757549 -1.638361 3.866429 -2e-06 -6.338828 2e-06 -1.69759 -22.591806 -6.194036 -0.0 -3e-06 3e-06 38.627956 -73.360512 158.462097 31.518341 -54.129692 13.040942 32.992912 0.160002 0.016959 0.543061 1.923811 -0.826596 22.18207 -20.375877 49.933296 -16.701815 -16.743513 28.476534 -1.1e-05 -12.690588 6e-06 29.787958 -31.810076 1.46726 -0.105918 -1.513855 -4.275876 -5.039033 -5.612867 -2.953559 1.1e-05 -11.020532 -5e-06 -6.111272 -15.895371 -3.840487 1e-06 0.0 -3e-06 -10.283356 -5.680282 -4.341835 11.028282 -11.3024 -2.372639 -1.384254 -14.23858 -6.320129 -0.625397 -26.924248 -3.827624 -70.814682 -88.800247 58.513268 -13.708507 -7.363469 -3.720936 18.141129 -14.052731 -3.242679 1.8e-05 -18.787279 -1e-05 -0.42971 -8.456063 2.555509 -1e-06 -0.0 -1e-06 -15.923511 -20.094467 -5.473581 30.419174 -7.190825 1.735908 5e-06 -8.162929 -0.0 -1.861865 -22.861525 -6.167956 2e-06 -6e-06 -0.0 178.8936 -9.055042 -6.61718 8.774731 -0.062222 0.282361 -76.198135 -3.28955 -11.156039 -5.050276 1.425654 2.117842 -0.999998 0.0 0.0 2.534681 2.314693 -9.399225 5.729658 0.039281 -0.194052 -78.938011 -6.878368 -2.912239 -4.576688 0.653124 1.678813 -1.000004 1e-06 -0.0 
